<svg xmlns="http://www.w3.org/2000/svg" xmlns:xlink="http://www.w3.org/1999/xlink" width="500" zoomAndPan="magnify" viewBox="0 0 375 374.999991" height="500" preserveAspectRatio="xMidYMid meet" version="1.0"><defs><g/></defs><rect x="-37.5" width="450" fill="#ffffff" y="-37.499999" height="449.999989" fill-opacity="1"/><rect x="-37.5" width="450" fill="#ffffff" y="-37.499999" height="449.999989" fill-opacity="1"/><g fill="#000000" fill-opacity="1"><g transform="translate(72.962036, 253.499983)"><g><path d="M 163.566406 -70.238281 C 163.703125 -74.660156 162.183594 -82.40625 160.382812 -85.445312 C 159.96875 -86.277344 159.554688 -87.105469 159.554688 -87.242188 C 159.691406 -88.210938 155.40625 -93.878906 152.78125 -96.367188 C 149.324219 -99.6875 142.273438 -103.421875 137.570312 -104.664062 C 137.019531 -104.804688 135.636719 -105.21875 134.53125 -105.496094 C 131.765625 -106.460938 112.40625 -107.84375 107.152344 -107.429688 C 105.078125 -107.292969 102.453125 -107.152344 101.347656 -107.152344 C 97.199219 -107.015625 83.648438 -105.355469 77.703125 -104.25 C 71.621094 -103.28125 54.890625 -99.824219 53.507812 -99.410156 C 52.816406 -99.132812 58.070312 -103.28125 62.355469 -106.460938 C 63.738281 -107.429688 65.121094 -108.535156 65.261719 -108.949219 C 65.398438 -109.226562 65.675781 -109.503906 66.089844 -109.503906 C 66.78125 -109.367188 77.566406 -118.765625 86.828125 -127.476562 C 91.113281 -131.347656 95.675781 -135.636719 96.921875 -136.742188 C 100.242188 -139.921875 105.078125 -145.730469 106.460938 -148.078125 C 108.398438 -151.535156 108.949219 -153.886719 108.535156 -157.066406 C 107.984375 -161.492188 106.738281 -163.148438 102.453125 -165.085938 C 99.6875 -166.191406 94.570312 -166.746094 91.53125 -166.328125 C 90.5625 -166.054688 89.730469 -166.054688 89.730469 -166.191406 C 89.59375 -166.191406 90.5625 -167.4375 91.804688 -168.957031 C 93.1875 -170.339844 94.15625 -171.859375 94.15625 -172.136719 C 94.296875 -172.414062 94.433594 -172.828125 94.710938 -172.964844 C 95.539062 -173.382812 95.261719 -175.179688 93.878906 -176.699219 C 91.667969 -179.050781 90.421875 -179.742188 88.351562 -179.878906 C 87.105469 -180.019531 86.550781 -180.15625 86.414062 -180.710938 C 86.277344 -181.261719 86.136719 -181.261719 85.445312 -180.847656 C 85.03125 -180.570312 84.476562 -180.15625 84.0625 -180.019531 C 82.679688 -179.601562 77.425781 -173.105469 71.066406 -163.289062 C 68.578125 -159.691406 67.332031 -158.035156 66.503906 -157.757812 C 63.1875 -156.511719 50.878906 -149.875 51.15625 -149.324219 C 51.296875 -149.183594 51.15625 -149.046875 50.878906 -149.183594 C 50.605469 -149.324219 48.53125 -148.355469 46.316406 -146.972656 C 42.863281 -144.761719 42.308594 -144.347656 43 -144.070312 C 43.691406 -143.65625 43.691406 -143.65625 42.863281 -143.65625 C 42.445312 -143.65625 41.894531 -143.65625 41.753906 -143.65625 C 41.339844 -143.792969 34.84375 -139.367188 31.386719 -136.464844 C 30.003906 -135.359375 29.449219 -134.804688 30.003906 -134.667969 C 30.417969 -134.667969 29.3125 -133.421875 26.960938 -131.347656 C 22.8125 -127.476562 20.1875 -124.851562 17.835938 -121.808594 C 17.007812 -120.703125 16.316406 -120.011719 16.316406 -120.148438 C 16.316406 -120.566406 20.738281 -125.820312 23.917969 -129.136719 C 25.855469 -131.347656 24.335938 -130.382812 22.121094 -128.03125 C 13.550781 -119.183594 8.433594 -110.472656 3.316406 -96.367188 C 2.765625 -94.710938 2.210938 -93.742188 1.660156 -93.605469 C 0.554688 -93.1875 0.277344 -92.222656 -0.414062 -85.445312 C -1.246094 -78.808594 -0.96875 -75.628906 0.414062 -75.214844 C 1.105469 -74.9375 1.519531 -74.246094 2.074219 -72.585938 C 3.179688 -68.992188 5.945312 -62.496094 7.605469 -59.589844 C 8.988281 -56.964844 13.964844 -49.773438 15.207031 -48.390625 C 16.589844 -47.007812 17.144531 -45.488281 16.867188 -44.382812 C 16.316406 -42.585938 18.25 -37.746094 19.910156 -36.640625 C 20.601562 -36.226562 21.152344 -35.671875 21.152344 -35.394531 C 21.152344 -35.117188 22.8125 -33.597656 23.503906 -33.460938 C 23.78125 -33.460938 24.195312 -33.320312 24.335938 -33.042969 C 25.441406 -32.351562 27.097656 -34.011719 26.824219 -35.394531 C 26.40625 -37.746094 26.40625 -38.160156 26.960938 -38.160156 C 27.789062 -38.023438 27.789062 -38.988281 26.960938 -39.957031 C 26.546875 -40.371094 26.269531 -41.0625 26.269531 -41.617188 C 26.40625 -43.136719 27.929688 -48.253906 29.726562 -53.09375 C 30.695312 -55.582031 31.800781 -58.898438 32.351562 -60.421875 C 34.425781 -66.226562 37.191406 -73.832031 40.234375 -81.160156 L 43.414062 -88.902344 L 47.839844 -89.871094 C 50.328125 -90.421875 54.890625 -91.390625 58.070312 -92.082031 C 61.25 -92.914062 64.84375 -93.742188 66.226562 -93.878906 C 69.269531 -94.296875 77.980469 -95.953125 78.808594 -96.230469 C 79.085938 -96.367188 79.640625 -96.507812 79.914062 -96.507812 C 80.332031 -96.507812 82.265625 -96.785156 84.203125 -97.199219 C 91.945312 -98.441406 98.859375 -99.410156 104.386719 -99.6875 C 105.910156 -99.824219 108.121094 -99.964844 109.226562 -100.101562 C 111.855469 -100.515625 126.511719 -100.101562 130.519531 -99.6875 C 134.53125 -99.273438 141.582031 -97.613281 143.929688 -96.644531 C 151.675781 -93.742188 156.097656 -87.660156 157.066406 -78.949219 C 157.34375 -76.183594 156.929688 -70.652344 156.375 -68.164062 C 155.128906 -64.015625 153.609375 -59.316406 152.640625 -56.964844 C 151.535156 -54.476562 144.347656 -41.480469 143.792969 -41.203125 C 143.238281 -40.648438 138.953125 -34.289062 139.230469 -34.152344 C 139.367188 -33.875 139.785156 -34.289062 141.304688 -35.949219 C 142.546875 -37.191406 140.199219 -33.875 137.710938 -30.832031 C 136.464844 -29.171875 135.496094 -27.789062 135.496094 -27.652344 C 135.496094 -27.515625 134.53125 -26.269531 133.285156 -25.027344 C 132.179688 -23.503906 131.210938 -22.261719 131.210938 -22.121094 C 131.210938 -21.84375 132.316406 -22.953125 133.839844 -24.335938 C 135.359375 -25.71875 136.464844 -26.546875 136.328125 -26.132812 C 135.910156 -25.164062 138.953125 -28.066406 141.027344 -30.554688 C 141.855469 -31.523438 142.410156 -32.214844 142.410156 -32.078125 C 142.410156 -31.664062 137.570312 -25.578125 135.359375 -23.226562 C 134.253906 -22.121094 132.039062 -19.632812 130.242188 -17.835938 C 126.371094 -13.550781 111.992188 -0.691406 107.707031 2.351562 C 105.910156 3.59375 102.730469 5.945312 100.65625 7.464844 C 95.675781 11.335938 83.371094 18.664062 77.289062 21.707031 C 75.628906 22.535156 75.214844 22.675781 74.9375 22.121094 C 74.800781 21.707031 74.523438 21.707031 74.246094 21.984375 C 73.832031 22.261719 73.832031 22.535156 74.109375 22.675781 C 74.660156 23.089844 69.683594 25.300781 65.398438 26.683594 C 63.601562 27.238281 62.355469 27.375 62.355469 27.097656 C 62.355469 26.824219 62.078125 26.824219 61.664062 26.960938 C 61.386719 27.238281 61.25 27.375 61.664062 27.515625 C 62.21875 27.929688 53.09375 30.28125 48.945312 30.832031 C 47.148438 31.109375 45.210938 31.109375 44.660156 30.972656 C 44.105469 30.695312 43.691406 30.832031 43.691406 31.109375 C 43.691406 31.800781 33.042969 30.554688 30.417969 29.589844 C 27.789062 28.480469 28.066406 28.207031 30.832031 29.171875 C 35.535156 30.832031 44.933594 30.832031 52.539062 28.898438 C 55.027344 28.34375 56.410156 28.207031 56.6875 28.480469 C 56.964844 28.757812 57.242188 28.757812 57.378906 28.480469 C 57.65625 28.207031 57.515625 28.066406 57.378906 28.066406 C 57.242188 28.066406 58.898438 27.375 61.113281 26.546875 C 66.089844 24.886719 79.363281 18.804688 81.160156 17.421875 C 81.851562 16.867188 83.097656 16.175781 83.785156 15.898438 C 85.167969 15.207031 94.296875 9.539062 94.433594 9.125 C 94.433594 8.847656 92.082031 10.09375 89.316406 11.753906 C 87.382812 12.996094 77.425781 18.527344 74.523438 20.046875 C 69.132812 22.8125 59.039062 26.40625 53.921875 27.652344 C 47.285156 29.171875 43 29.589844 37.746094 29.171875 C 29.035156 28.621094 23.089844 25.578125 21.429688 20.878906 C 20.324219 17.699219 20.460938 10.921875 21.84375 6.082031 C 22.121094 5.117188 22.261719 4.148438 22.121094 4.007812 C 21.707031 3.042969 26.269531 -5.945312 29.449219 -10.09375 C 32.628906 -14.378906 33.734375 -15.898438 34.011719 -16.039062 C 34.152344 -16.175781 34.703125 -16.867188 35.394531 -17.699219 C 38.851562 -22.121094 40.789062 -24.195312 49.222656 -31.386719 C 54.75 -36.226562 64.292969 -43.277344 69.824219 -46.59375 C 71.066406 -47.425781 73.695312 -49.082031 75.769531 -50.1875 C 79.914062 -52.816406 87.382812 -56.964844 91.390625 -58.761719 C 92.914062 -59.453125 94.710938 -60.28125 95.261719 -60.695312 C 96.644531 -61.527344 112.132812 -68.164062 112.683594 -68.023438 C 112.820312 -68.023438 113.929688 -68.441406 115.171875 -68.855469 C 120.425781 -70.929688 128.308594 -73.003906 131.488281 -73.277344 C 132.59375 -73.417969 133.285156 -73.695312 133.421875 -74.109375 C 133.5625 -74.523438 133.976562 -74.9375 134.390625 -74.9375 C 135.359375 -75.214844 135.359375 -75.628906 134.53125 -76.875 C 133.285156 -78.671875 128.585938 -78.53125 122.363281 -76.597656 C 120.566406 -76.042969 118.765625 -75.492188 118.492188 -75.628906 C 118.214844 -75.769531 117.9375 -75.769531 117.9375 -75.492188 C 118.078125 -75.351562 115.863281 -74.386719 113.238281 -73.277344 C 106.460938 -70.789062 96.785156 -66.78125 96.09375 -66.089844 C 95.816406 -65.953125 95.402344 -65.675781 95.125 -65.675781 C 94.710938 -65.8125 85.585938 -61.25 81.714844 -59.039062 C 80.054688 -58.070312 77.289062 -56.550781 75.628906 -55.71875 C 73.832031 -54.890625 71.898438 -53.644531 71.066406 -52.953125 C 70.375 -52.402344 68.855469 -51.433594 67.886719 -51.019531 C 65.535156 -49.773438 64.152344 -48.808594 64.015625 -48.253906 C 64.015625 -47.976562 63.738281 -47.839844 63.460938 -47.839844 C 62.632812 -47.839844 60.421875 -46.457031 60.421875 -45.765625 C 60.421875 -45.488281 60.007812 -45.210938 59.453125 -45.074219 C 58.207031 -44.660156 50.050781 -38.988281 50.050781 -38.4375 C 50.050781 -37.882812 50.464844 -38.023438 52.402344 -39.40625 C 53.921875 -40.371094 53.785156 -40.234375 51.710938 -38.4375 C 50.1875 -37.191406 48.808594 -36.363281 48.53125 -36.363281 C 47.699219 -36.777344 39.679688 -30.28125 39.542969 -29.3125 C 39.542969 -28.757812 40.234375 -29.035156 40.925781 -29.726562 C 41.339844 -30.28125 41.753906 -30.554688 41.894531 -30.28125 C 41.894531 -30.28125 41.339844 -29.589844 40.371094 -28.898438 C 39.40625 -28.34375 37.46875 -26.546875 36.085938 -25.027344 C 34.703125 -23.503906 33.320312 -22.398438 33.320312 -22.535156 C 33.042969 -22.8125 32.078125 -22.121094 31.9375 -21.570312 C 31.9375 -21.429688 32.214844 -21.292969 32.492188 -21.429688 C 32.90625 -21.429688 33.183594 -21.429688 33.042969 -21.152344 C 33.042969 -21.015625 32.90625 -20.878906 32.628906 -20.878906 C 32.492188 -20.878906 31.800781 -20.1875 31.246094 -19.355469 C 30.695312 -18.527344 29.863281 -17.972656 29.589844 -18.113281 C 29.171875 -18.113281 28.757812 -17.835938 28.621094 -17.558594 C 28.480469 -17.144531 28.480469 -17.144531 29.035156 -17.558594 C 29.449219 -17.699219 29.726562 -17.835938 29.726562 -17.558594 C 29.726562 -17.421875 29.449219 -17.007812 29.035156 -16.730469 C 28.757812 -16.453125 27.515625 -15.070312 26.40625 -13.550781 C 24.335938 -10.785156 23.367188 -9.953125 25.164062 -12.582031 C 25.71875 -13.273438 25.855469 -13.828125 25.578125 -13.6875 C 25.300781 -13.550781 24.75 -12.996094 24.472656 -12.304688 C 24.058594 -11.753906 23.644531 -11.335938 23.367188 -11.476562 C 23.226562 -11.613281 22.398438 -10.644531 21.707031 -9.402344 C 20.878906 -8.15625 20.046875 -7.191406 19.910156 -7.328125 C 19.355469 -7.464844 16.589844 -2.074219 16.453125 -0.828125 C 16.316406 -0.277344 16.453125 0.414062 16.730469 0.828125 C 17.007812 1.519531 17.007812 1.796875 16.175781 2.628906 C 15.761719 3.179688 15.207031 4.148438 15.207031 4.699219 C 15.207031 5.667969 15.347656 5.53125 16.039062 4.148438 L 16.867188 2.628906 L 16.589844 5.253906 C 16.316406 6.636719 16.039062 8.710938 15.761719 9.953125 C 14.933594 14.933594 17.558594 23.644531 21.292969 27.375 C 24.609375 30.972656 30.832031 34.152344 36.5 35.394531 C 38.988281 35.949219 43.691406 36.085938 43.96875 35.808594 C 44.105469 35.535156 44.382812 35.535156 44.660156 35.808594 C 45.210938 36.226562 46.59375 36.085938 52.261719 35.394531 C 58.207031 34.566406 60.007812 34.152344 60.007812 33.734375 C 60.007812 33.460938 60.28125 33.460938 60.421875 33.597656 C 60.972656 33.875 70.375 30.554688 75.90625 27.929688 C 80.332031 25.855469 90.839844 20.1875 93.1875 18.527344 C 93.605469 18.25 94.988281 17.421875 96.09375 16.589844 C 99.964844 14.242188 105.355469 10.371094 105.355469 10.09375 C 105.355469 9.816406 105.496094 9.679688 105.769531 9.679688 C 106.1875 9.816406 107.015625 9.261719 111.855469 5.390625 C 115.726562 2.488281 126.648438 -7.191406 126.648438 -7.605469 C 126.648438 -7.742188 127.617188 -8.574219 128.722656 -9.402344 C 129.828125 -10.230469 130.933594 -11.476562 131.074219 -11.890625 C 131.210938 -12.445312 131.625 -12.859375 131.902344 -12.859375 C 132.179688 -12.859375 132.457031 -12.996094 132.457031 -13.136719 C 132.457031 -13.273438 133.007812 -13.828125 133.421875 -14.378906 C 135.496094 -16.316406 137.433594 -18.25 138.125 -19.082031 C 138.539062 -19.632812 140.058594 -21.429688 141.441406 -23.226562 C 148.769531 -31.800781 155.683594 -43 159.96875 -53.230469 C 161.492188 -56.6875 162.597656 -61.527344 162.320312 -62.632812 C 162.183594 -62.910156 162.457031 -63.324219 162.597656 -63.460938 C 163.011719 -63.601562 163.148438 -64.707031 163.289062 -66.640625 C 163.425781 -68.164062 163.425781 -69.824219 163.566406 -70.238281 Z M 86.550781 -128.722656 C 85.859375 -128.167969 85.308594 -127.753906 85.308594 -127.894531 C 85.308594 -127.894531 85.859375 -128.445312 86.550781 -129 C 87.242188 -129.691406 87.796875 -129.964844 87.796875 -129.964844 C 87.796875 -129.828125 87.242188 -129.277344 86.550781 -128.722656 Z M 86.136719 -131.488281 C 83.097656 -128.722656 80.332031 -126.511719 80.054688 -126.511719 C 79.914062 -126.511719 79.640625 -126.785156 79.5 -127.0625 C 79.222656 -127.617188 87.796875 -135.082031 88.625 -135.082031 C 88.902344 -135.082031 89.59375 -135.496094 90.285156 -135.910156 C 90.839844 -136.464844 91.53125 -136.878906 91.53125 -136.742188 C 91.804688 -136.601562 89.316406 -134.253906 86.136719 -131.488281 Z M 71.621094 -141.027344 C 73.554688 -144.207031 75.214844 -146.972656 75.214844 -147.25 C 75.214844 -147.527344 75.351562 -147.664062 75.628906 -147.664062 C 75.769531 -147.664062 76.183594 -148.21875 76.460938 -148.769531 C 77.425781 -150.292969 78.53125 -151.398438 78.808594 -151.121094 C 78.949219 -150.984375 79.085938 -151.121094 79.085938 -151.398438 C 79.085938 -151.675781 80.191406 -153.472656 81.714844 -155.546875 C 83.097656 -157.621094 84.339844 -159.417969 84.339844 -159.554688 C 84.339844 -159.832031 84.753906 -160.382812 85.167969 -160.800781 C 86.136719 -161.765625 92.359375 -163.289062 95.953125 -163.425781 C 98.71875 -163.566406 102.175781 -162.597656 103.421875 -161.351562 C 104.386719 -160.523438 104.527344 -160.382812 104.113281 -159.691406 C 103.835938 -159.140625 103.558594 -158.171875 103.421875 -157.480469 C 103.144531 -154.164062 100.515625 -150.015625 94.570312 -144.347656 C 92.914062 -142.824219 91.253906 -140.890625 90.976562 -140.199219 C 90.5625 -139.644531 89.871094 -138.953125 89.316406 -138.675781 C 88.902344 -138.539062 88.488281 -138.261719 88.488281 -138.125 C 88.488281 -137.570312 86.550781 -136.050781 86.136719 -136.1875 C 85.722656 -136.464844 84.203125 -135.359375 84.339844 -134.945312 C 84.476562 -134.804688 83.785156 -134.113281 82.957031 -133.421875 C 81.988281 -132.871094 79.777344 -131.210938 77.980469 -129.691406 C 76.183594 -128.308594 73.417969 -126.09375 71.757812 -124.851562 C 70.097656 -123.605469 68.714844 -122.222656 68.714844 -121.808594 C 68.714844 -121.394531 68.300781 -120.839844 68.023438 -120.703125 C 67.472656 -120.289062 67.332031 -120.289062 67.609375 -120.703125 C 67.886719 -120.839844 67.75 -121.117188 67.609375 -121.117188 C 67.058594 -121.117188 66.226562 -120.148438 66.503906 -119.875 C 66.640625 -119.597656 64.984375 -118.078125 60.28125 -114.34375 C 57.378906 -111.855469 54.613281 -110.058594 54.613281 -110.472656 C 54.476562 -111.441406 54.890625 -112.820312 55.441406 -113.511719 C 55.71875 -113.929688 57.101562 -116.277344 58.347656 -118.628906 C 61.386719 -124.296875 67.195312 -134.113281 71.621094 -141.027344 Z M 45.074219 -145.453125 C 45.074219 -145.730469 45.488281 -145.867188 45.625 -145.867188 C 45.902344 -145.867188 45.902344 -145.589844 45.765625 -145.453125 C 45.625 -145.175781 45.351562 -145.039062 45.074219 -145.039062 C 44.933594 -145.039062 44.796875 -145.3125 45.074219 -145.453125 Z M 38.160156 -140.890625 L 40.511719 -142.273438 L 38.023438 -140.476562 C 36.640625 -139.367188 34.566406 -137.710938 33.460938 -136.601562 C 32.351562 -135.636719 31.523438 -134.945312 31.523438 -135.222656 C 31.523438 -135.773438 35.117188 -138.816406 38.160156 -140.890625 Z M 13.410156 -116.417969 C 13.828125 -117.109375 14.378906 -117.660156 14.378906 -117.660156 C 14.515625 -117.660156 14.242188 -117.109375 13.828125 -116.417969 C 13.410156 -115.585938 12.859375 -115.035156 12.71875 -115.035156 C 12.582031 -115.035156 12.859375 -115.585938 13.410156 -116.417969 Z M 19.496094 -54.199219 C 18.941406 -52.261719 18.390625 -50.605469 18.25 -50.605469 C 17.972656 -50.605469 14.65625 -55.996094 12.582031 -59.867188 C 9.953125 -64.84375 7.191406 -71.898438 6.082031 -75.769531 C 5.390625 -78.808594 5.390625 -79.640625 5.667969 -83.234375 C 6.773438 -93.050781 9.816406 -101.898438 15.347656 -110.886719 C 21.84375 -121.394531 28.207031 -128.445312 38.160156 -136.050781 C 45.074219 -141.304688 57.101562 -149.046875 64.292969 -152.78125 L 65.953125 -153.609375 L 64.292969 -150.984375 C 63.324219 -149.601562 62.21875 -147.941406 61.804688 -147.25 C 61.386719 -146.695312 58.898438 -142.410156 56.132812 -137.847656 C 49.914062 -127.0625 43.277344 -114.757812 38.851562 -105.21875 L 35.394531 -97.613281 L 33.042969 -96.230469 C 30.003906 -94.433594 26.132812 -92.914062 25.164062 -93.1875 C 24.472656 -93.464844 24.335938 -93.328125 24.335938 -92.222656 C 24.472656 -89.316406 25.027344 -87.519531 26.40625 -86.277344 C 27.097656 -85.722656 28.34375 -85.167969 28.898438 -85.03125 C 29.726562 -85.03125 30.003906 -84.753906 29.726562 -84.339844 C 29.589844 -84.0625 29.171875 -83.097656 29.035156 -82.265625 C 28.757812 -81.4375 28.34375 -80.332031 28.066406 -79.914062 C 26.824219 -77.703125 21.015625 -60.144531 19.496094 -54.199219 Z M 49.222656 -119.042969 C 49.222656 -118.765625 49.082031 -118.351562 48.808594 -118.078125 C 48.667969 -117.800781 48.390625 -117.660156 48.390625 -117.9375 C 48.390625 -118.078125 48.667969 -118.492188 48.808594 -118.90625 C 49.082031 -119.183594 49.222656 -119.183594 49.222656 -119.042969 Z M 28.066406 -71.480469 C 27.789062 -71.207031 27.652344 -71.480469 27.929688 -72.171875 C 28.066406 -73.003906 28.207031 -73.140625 28.34375 -72.585938 C 28.34375 -72.171875 28.207031 -71.621094 28.066406 -71.480469 Z M 21.152344 -41.617188 C 20.601562 -42.308594 20.601562 -42.308594 21.292969 -41.753906 C 21.570312 -41.480469 21.84375 -41.0625 21.84375 -41.0625 C 21.84375 -40.648438 21.570312 -40.925781 21.152344 -41.617188 Z M 39.40625 -85.03125 C 39.128906 -84.476562 38.714844 -83.097656 38.4375 -81.988281 C 38.160156 -80.882812 37.605469 -79.363281 37.191406 -78.53125 C 36.777344 -77.703125 36.5 -76.875 36.5 -76.734375 C 36.5 -76.597656 36.085938 -75.769531 35.671875 -74.9375 C 35.117188 -73.96875 34.703125 -72.863281 34.703125 -72.3125 C 34.703125 -71.757812 33.734375 -69.683594 32.628906 -67.609375 C 31.523438 -65.535156 30.140625 -62.632812 29.726562 -61.25 C 29.035156 -58.898438 27.789062 -55.582031 27.238281 -54.199219 C 27.097656 -53.921875 26.960938 -53.507812 26.960938 -53.371094 C 27.097656 -52.402344 25.855469 -48.808594 25.300781 -48.667969 C 24.886719 -48.53125 24.75 -47.839844 24.609375 -45.902344 C 24.472656 -43.136719 24.335938 -42.585938 23.644531 -43.828125 C 23.503906 -44.382812 23.503906 -44.933594 23.78125 -45.625 C 23.917969 -46.042969 24.335938 -47.976562 24.609375 -49.636719 C 24.886719 -51.433594 25.441406 -53.230469 25.71875 -53.921875 C 26.132812 -54.476562 26.40625 -55.167969 26.40625 -55.441406 C 26.40625 -55.859375 26.960938 -57.101562 27.515625 -58.484375 C 28.480469 -60.695312 28.480469 -62.355469 27.652344 -61.941406 C 27.375 -61.804688 27.238281 -61.25 27.238281 -60.695312 C 27.097656 -60.144531 26.960938 -59.453125 26.683594 -59.175781 C 26.269531 -58.484375 24.609375 -52.816406 23.644531 -48.808594 C 22.953125 -46.59375 22.675781 -46.179688 22.8125 -47.976562 C 22.8125 -48.667969 22.675781 -48.945312 22.535156 -48.667969 C 22.398438 -48.390625 22.121094 -47.976562 21.84375 -47.839844 C 21.429688 -47.699219 21.84375 -46.316406 22.261719 -46.316406 C 22.535156 -46.316406 22.675781 -46.042969 22.535156 -45.625 C 22.535156 -45.351562 22.261719 -45.488281 21.570312 -46.316406 C 20.878906 -47.425781 20.738281 -47.839844 21.015625 -49.222656 C 21.152344 -50.1875 21.570312 -50.878906 21.707031 -51.019531 C 21.984375 -51.019531 22.121094 -51.570312 21.984375 -51.988281 C 21.984375 -52.539062 22.398438 -55.027344 23.226562 -57.515625 C 24.886719 -63.1875 25.027344 -63.460938 25.300781 -63.324219 C 25.578125 -63.1875 25.71875 -63.738281 25.71875 -64.707031 C 25.855469 -66.640625 27.375 -70.929688 27.789062 -70.515625 C 28.066406 -70.375 28.207031 -70.652344 28.480469 -70.929688 C 30.140625 -75.214844 30.554688 -76.460938 30.695312 -77.289062 C 30.695312 -77.980469 30.417969 -77.566406 29.863281 -76.183594 C 29.449219 -75.078125 28.898438 -74.109375 28.757812 -73.96875 C 28.621094 -73.832031 28.480469 -73.96875 28.621094 -74.246094 C 28.757812 -74.523438 29.449219 -76.320312 30.140625 -78.117188 C 30.832031 -80.054688 31.523438 -81.4375 31.664062 -81.4375 C 31.664062 -81.4375 31.664062 -81.023438 31.386719 -80.46875 C 30.832031 -78.53125 31.9375 -80.054688 32.769531 -82.128906 C 33.460938 -84.0625 33.460938 -84.203125 32.90625 -83.648438 C 32.492188 -83.234375 32.214844 -82.679688 32.214844 -82.542969 C 32.214844 -82.265625 32.078125 -82.265625 31.9375 -82.265625 C 31.9375 -82.40625 32.078125 -83.371094 32.492188 -84.339844 C 33.183594 -85.859375 33.597656 -86.136719 35.257812 -86.691406 C 37.605469 -87.519531 37.882812 -87.519531 37.332031 -86.828125 C 37.054688 -86.550781 36.5 -85.308594 36.085938 -83.925781 C 35.671875 -82.679688 35.257812 -81.4375 34.980469 -81.296875 C 34.84375 -81.160156 33.734375 -78.808594 32.628906 -76.042969 C 31.523438 -73.277344 30.417969 -70.929688 30.140625 -70.929688 C 30.003906 -71.066406 29.863281 -70.789062 30.003906 -70.375 C 30.003906 -70.097656 29.863281 -69.269531 29.726562 -68.578125 C 28.34375 -65.121094 27.929688 -63.601562 28.207031 -63.1875 C 28.621094 -62.21875 29.3125 -63.1875 30.140625 -66.089844 C 30.554688 -67.886719 31.246094 -69.40625 31.386719 -69.683594 C 31.664062 -69.824219 31.800781 -70.515625 31.664062 -70.929688 C 31.664062 -71.480469 31.800781 -71.898438 32.214844 -72.035156 C 32.769531 -72.3125 32.90625 -72.726562 32.90625 -73.003906 C 32.769531 -73.417969 33.042969 -73.695312 33.460938 -73.695312 C 34.152344 -73.832031 34.566406 -74.386719 35.671875 -76.320312 C 35.808594 -76.460938 35.535156 -76.320312 34.980469 -76.042969 C 34.152344 -75.351562 34.152344 -75.351562 34.703125 -76.875 C 34.84375 -77.566406 35.394531 -79.222656 35.671875 -80.46875 C 35.949219 -81.574219 36.640625 -82.820312 36.917969 -83.097656 C 38.023438 -83.925781 38.851562 -85.308594 38.574219 -86 C 38.4375 -86.277344 38.714844 -86.550781 39.128906 -86.414062 C 40.097656 -86.414062 40.097656 -86.414062 39.40625 -85.03125 Z M 39.542969 -87.242188 C 38.851562 -87.382812 38.714844 -87.382812 39.265625 -87.660156 C 40.097656 -88.074219 40.511719 -88.074219 40.511719 -87.519531 C 40.371094 -87.382812 39.957031 -87.242188 39.542969 -87.242188 Z M 47.007812 -108.257812 C 46.59375 -107.984375 46.042969 -107.015625 45.902344 -106.1875 C 45.351562 -104.113281 43.691406 -102.3125 42.171875 -102.453125 C 41.0625 -102.453125 40.648438 -101.898438 41.617188 -101.621094 C 42.03125 -101.484375 41.894531 -101.207031 40.925781 -100.792969 C 40.234375 -100.515625 39.679688 -100.378906 39.820312 -100.515625 C 39.820312 -101.484375 40.925781 -103.28125 41.339844 -103.28125 C 41.894531 -103.144531 42.722656 -104.527344 43.550781 -106.601562 C 43.691406 -107.292969 43.691406 -107.429688 43.414062 -107.292969 C 42.863281 -107.015625 42.863281 -107.152344 43.277344 -107.984375 C 43.414062 -108.257812 43.691406 -108.398438 43.96875 -108.257812 C 44.242188 -108.257812 44.796875 -108.949219 45.488281 -110.332031 C 46.179688 -111.578125 46.734375 -112.683594 47.007812 -112.960938 C 47.285156 -113.238281 47.285156 -113.929688 47.285156 -114.621094 C 47.148438 -115.449219 47.285156 -115.726562 47.699219 -115.585938 C 48.253906 -115.3125 50.742188 -120.148438 50.464844 -120.980469 C 50.1875 -121.671875 51.433594 -124.4375 51.847656 -124.160156 C 51.847656 -124.019531 51.710938 -123.332031 51.296875 -122.640625 C 50.878906 -121.949219 50.605469 -121.394531 50.742188 -121.257812 C 50.878906 -121.117188 51.847656 -122.363281 52.816406 -124.160156 C 53.785156 -125.957031 55.027344 -128.03125 55.71875 -129 C 56.273438 -129.964844 56.964844 -131.488281 57.378906 -132.59375 C 57.65625 -133.5625 58.207031 -134.390625 58.347656 -134.390625 C 58.898438 -134.253906 60.558594 -137.292969 60.558594 -137.984375 C 60.421875 -138.261719 60.695312 -138.539062 60.972656 -138.539062 C 61.664062 -138.816406 62.910156 -140.890625 63.046875 -141.855469 C 63.046875 -142.273438 63.601562 -142.964844 64.152344 -143.515625 C 64.707031 -144.070312 65.261719 -144.761719 65.261719 -145.039062 C 65.261719 -145.3125 65.398438 -145.730469 65.675781 -145.867188 C 65.953125 -146.003906 66.089844 -146.421875 66.089844 -146.835938 C 66.089844 -147.25 66.367188 -147.527344 66.640625 -147.527344 C 67.058594 -147.527344 67.058594 -147.386719 66.226562 -145.867188 C 65.398438 -144.347656 65.675781 -143.378906 66.640625 -144.621094 C 66.917969 -144.898438 67.332031 -145.453125 67.332031 -145.589844 C 67.472656 -145.867188 67.75 -146.003906 67.886719 -145.867188 C 68.300781 -145.730469 67.886719 -144.898438 66.917969 -143.378906 C 66.089844 -142.273438 65.398438 -141.167969 65.535156 -141.027344 C 65.675781 -140.890625 65.953125 -141.027344 66.089844 -141.167969 C 66.503906 -141.71875 68.578125 -141.996094 68.578125 -141.441406 C 68.578125 -141.167969 67.195312 -138.953125 66.367188 -137.710938 C 66.089844 -137.433594 64.84375 -135.359375 63.601562 -133.007812 C 62.21875 -130.519531 61.25 -129 60.835938 -129.136719 C 60.144531 -129.414062 60.695312 -131.074219 61.804688 -131.902344 C 62.355469 -132.457031 62.910156 -133.148438 63.046875 -133.5625 C 63.324219 -134.113281 63.738281 -134.804688 64.152344 -135.222656 C 64.707031 -135.636719 64.984375 -136.464844 65.121094 -136.878906 C 65.121094 -137.433594 65.261719 -137.847656 65.535156 -137.847656 C 65.675781 -137.710938 65.953125 -138.261719 65.953125 -138.816406 C 66.089844 -139.921875 65.953125 -139.921875 65.398438 -139.230469 C 64.707031 -138.402344 64.570312 -138.675781 64.84375 -139.921875 C 64.984375 -140.335938 64.84375 -140.613281 64.570312 -140.476562 C 64.292969 -140.335938 64.152344 -139.921875 64.015625 -139.644531 C 64.015625 -139.367188 63.601562 -138.675781 63.1875 -138.261719 C 62.632812 -137.710938 62.355469 -137.019531 62.496094 -136.878906 C 62.632812 -136.601562 62.355469 -136.050781 61.804688 -135.636719 C 61.386719 -135.222656 60.972656 -134.804688 60.972656 -134.667969 C 60.972656 -134.53125 60.28125 -133.421875 59.453125 -132.179688 C 58.625 -130.933594 57.933594 -129.828125 58.070312 -129.691406 C 58.207031 -129.414062 57.933594 -128.722656 57.378906 -128.167969 C 56.964844 -127.753906 56.550781 -126.785156 56.410156 -126.09375 C 56.410156 -124.710938 55.71875 -123.605469 55.167969 -123.882812 C 54.890625 -124.019531 53.644531 -122.085938 51.433594 -117.9375 C 50.1875 -116.003906 49.914062 -114.621094 50.605469 -115.035156 C 50.742188 -115.171875 50.742188 -114.894531 50.605469 -114.480469 C 50.464844 -114.066406 50.1875 -113.652344 49.773438 -113.652344 C 49.222656 -113.789062 48.667969 -112.683594 48.117188 -110.472656 C 47.976562 -109.640625 47.425781 -108.675781 47.007812 -108.257812 Z M 51.847656 -116.832031 C 51.847656 -116.695312 51.710938 -116.277344 51.433594 -116.003906 C 51.019531 -115.449219 51.019531 -115.449219 51.019531 -116.003906 C 51.019531 -116.417969 51.296875 -116.832031 51.433594 -116.96875 C 51.710938 -117.109375 51.847656 -116.96875 51.847656 -116.832031 Z M 48.808594 -106.046875 C 48.53125 -105.910156 48.390625 -106.046875 48.390625 -106.324219 C 48.390625 -106.460938 48.667969 -106.738281 48.808594 -106.738281 C 49.082031 -106.601562 49.222656 -106.601562 49.222656 -106.460938 C 49.222656 -106.324219 48.945312 -106.1875 48.808594 -106.046875 Z M 52.539062 -112.820312 C 51.847656 -111.300781 50.878906 -109.226562 50.464844 -108.398438 C 49.914062 -107.429688 49.359375 -107.152344 48.808594 -107.152344 C 47.976562 -107.292969 48.117188 -108.121094 48.945312 -108.121094 C 49.222656 -107.984375 49.496094 -108.257812 49.359375 -108.675781 C 49.082031 -110.75 49.222656 -111.714844 50.1875 -112.269531 C 50.742188 -112.546875 51.15625 -112.960938 51.15625 -113.375 C 51.15625 -113.652344 51.433594 -114.480469 51.847656 -115.171875 C 52.261719 -115.863281 52.679688 -116.832031 52.953125 -117.386719 C 53.230469 -118.214844 53.230469 -118.351562 52.539062 -117.9375 C 51.847656 -117.386719 51.710938 -117.523438 52.402344 -118.628906 C 52.679688 -119.042969 53.09375 -119.320312 53.230469 -119.183594 C 53.507812 -119.042969 53.644531 -119.183594 53.644531 -119.457031 C 53.644531 -119.734375 53.921875 -120.148438 54.199219 -120.148438 C 54.613281 -120.289062 54.890625 -120.839844 55.027344 -121.808594 C 55.027344 -122.777344 55.304688 -123.191406 55.71875 -123.332031 C 55.996094 -123.46875 56.550781 -123.882812 56.824219 -124.4375 C 56.964844 -124.851562 57.378906 -125.542969 57.65625 -125.957031 C 58.207031 -126.511719 58.207031 -126.648438 57.792969 -126.785156 C 57.515625 -126.925781 57.378906 -127.203125 57.515625 -127.339844 C 57.792969 -127.617188 57.933594 -127.617188 58.070312 -127.203125 C 58.484375 -126.648438 59.175781 -127.0625 59.730469 -128.308594 C 60.144531 -128.859375 60.421875 -129.136719 60.558594 -128.859375 C 61.113281 -128.167969 57.378906 -121.117188 56.410156 -120.980469 C 55.71875 -120.839844 55.304688 -120.011719 55.996094 -119.875 C 56.550781 -119.875 55.304688 -117.386719 54.335938 -116.554688 C 54.0625 -116.140625 53.230469 -114.480469 52.539062 -112.820312 Z M 96.921875 -103.144531 C 101.761719 -103.972656 102.175781 -103.972656 102.039062 -103.003906 C 102.039062 -102.589844 101.898438 -102.3125 101.621094 -102.453125 C 101.484375 -102.589844 100.65625 -102.453125 99.824219 -102.175781 C 98.027344 -101.621094 97.75 -101.621094 97.476562 -102.175781 C 97.335938 -102.453125 96.507812 -102.589844 95.261719 -102.589844 C 93.605469 -102.453125 94.15625 -102.589844 96.921875 -103.144531 Z M 90.839844 -102.589844 C 91.945312 -103.003906 92.359375 -103.003906 91.945312 -102.453125 C 91.804688 -102.3125 91.390625 -102.175781 90.839844 -102.3125 C 90.007812 -102.3125 90.007812 -102.3125 90.839844 -102.589844 Z M 123.746094 -101.484375 C 123.46875 -101.070312 121.671875 -101.207031 119.875 -101.761719 C 119.042969 -102.039062 119.320312 -102.175781 121.394531 -102.039062 C 123.054688 -102.039062 124.019531 -101.761719 123.746094 -101.484375 Z M 126.785156 -103.144531 C 126.648438 -102.867188 125.957031 -102.867188 124.988281 -102.867188 C 119.875 -103.421875 119.042969 -103.558594 118.351562 -103.144531 C 118.078125 -102.867188 117.800781 -102.453125 117.9375 -102.3125 C 118.492188 -101.347656 109.917969 -101.207031 108.949219 -102.175781 C 108.675781 -102.453125 108.257812 -102.589844 108.121094 -102.453125 C 107.84375 -102.3125 107.984375 -102.175781 108.257812 -102.175781 C 108.535156 -102.175781 108.675781 -102.039062 108.675781 -101.761719 C 108.675781 -101.621094 107.84375 -101.347656 106.738281 -101.347656 C 103.558594 -101.207031 86.828125 -99.410156 84.339844 -98.859375 C 83.097656 -98.71875 81.714844 -98.441406 81.296875 -98.582031 C 80.882812 -98.582031 80.46875 -98.441406 80.46875 -98.304688 C 80.46875 -98.167969 79.777344 -98.027344 78.808594 -98.027344 C 77.839844 -98.167969 77.011719 -97.890625 76.734375 -97.476562 C 76.042969 -96.785156 74.9375 -96.785156 74.9375 -97.476562 C 74.9375 -98.027344 77.152344 -98.582031 81.574219 -99.273438 C 82.679688 -99.410156 85.03125 -99.824219 86.96875 -100.101562 C 91.804688 -100.929688 95.261719 -101.207031 95.675781 -100.929688 C 95.816406 -100.792969 96.09375 -100.792969 96.09375 -101.070312 C 96.09375 -101.347656 96.367188 -101.484375 96.507812 -101.347656 C 96.921875 -101.207031 97.890625 -101.207031 98.996094 -101.347656 C 100.101562 -101.484375 101.347656 -101.621094 101.898438 -101.484375 C 102.453125 -101.484375 102.867188 -101.621094 103.003906 -101.898438 C 103.144531 -102.039062 103.972656 -102.039062 104.941406 -102.039062 C 105.910156 -101.898438 106.738281 -102.039062 106.738281 -102.3125 C 106.738281 -102.589844 106.046875 -102.730469 104.664062 -102.589844 C 102.589844 -102.589844 102.453125 -102.589844 102.589844 -103.421875 C 102.730469 -104.113281 102.867188 -104.25 104.113281 -103.972656 C 104.941406 -103.835938 105.769531 -103.835938 106.046875 -103.972656 C 106.1875 -104.113281 107.015625 -104.25 107.84375 -104.113281 C 109.226562 -103.972656 109.367188 -103.835938 109.226562 -103.003906 C 109.089844 -102.175781 109.226562 -102.039062 109.917969 -102.175781 C 110.472656 -102.3125 111.714844 -102.3125 112.683594 -102.3125 L 114.34375 -102.3125 L 112.132812 -102.730469 C 110.886719 -103.144531 110.058594 -103.558594 110.058594 -103.835938 C 110.332031 -104.386719 112.960938 -104.527344 118.078125 -104.25 C 125.957031 -103.835938 126.925781 -103.695312 126.785156 -103.144531 Z M 130.933594 -102.589844 C 130.65625 -102.175781 128.308594 -102.3125 127.894531 -102.730469 C 127.339844 -103.28125 128.03125 -103.421875 129.550781 -103.144531 C 130.519531 -103.003906 131.074219 -102.730469 130.933594 -102.589844 Z M 134.253906 -100.101562 C 134.113281 -100.101562 133.285156 -100.378906 132.457031 -100.515625 L 130.796875 -100.929688 L 132.730469 -100.792969 C 133.699219 -100.792969 134.53125 -100.65625 134.53125 -100.378906 C 134.53125 -100.242188 134.390625 -100.101562 134.253906 -100.101562 Z M 145.3125 -97.613281 C 142.824219 -99.132812 136.464844 -101.484375 134.253906 -101.621094 C 133.007812 -101.621094 132.179688 -101.898438 131.902344 -102.3125 C 131.488281 -102.867188 131.765625 -102.867188 133.5625 -102.589844 C 137.847656 -101.761719 146.421875 -98.027344 147.109375 -96.785156 C 147.386719 -96.230469 147.25 -96.230469 145.3125 -97.613281 Z M 119.875 -72.726562 C 119.457031 -72.726562 119.320312 -72.863281 119.457031 -73.003906 C 119.457031 -73.003906 119.875 -73.140625 120.148438 -73.003906 C 120.425781 -72.863281 120.289062 -72.726562 119.875 -72.726562 Z M 119.320312 -73.832031 C 119.734375 -74.109375 120.289062 -74.246094 120.566406 -74.246094 C 120.980469 -74.109375 120.839844 -73.96875 120.289062 -73.832031 C 119.183594 -73.417969 118.628906 -73.417969 119.320312 -73.832031 Z M 111.855469 -69.824219 C 111.164062 -69.546875 109.917969 -69.269531 109.089844 -68.992188 C 108.257812 -68.714844 107.566406 -68.441406 107.566406 -68.578125 C 107.566406 -68.992188 113.652344 -71.207031 113.929688 -71.066406 C 114.066406 -70.789062 113.097656 -70.238281 111.855469 -69.824219 Z M 113.789062 -72.171875 C 114.34375 -72.3125 114.894531 -72.585938 115.171875 -72.585938 C 115.3125 -72.585938 115.035156 -72.3125 114.480469 -72.035156 C 113.929688 -71.757812 113.238281 -71.621094 113.097656 -71.621094 C 112.820312 -71.621094 113.238281 -71.898438 113.789062 -72.171875 Z M 77.839844 -55.859375 C 77.839844 -55.71875 76.875 -55.027344 75.628906 -54.335938 C 74.386719 -53.644531 73.554688 -53.230469 73.695312 -53.371094 C 74.109375 -53.921875 77.566406 -55.996094 77.839844 -55.859375 Z M 71.066406 -51.988281 C 71.207031 -51.988281 71.480469 -51.988281 71.480469 -51.847656 C 71.34375 -51.710938 71.207031 -51.570312 71.066406 -51.433594 C 70.789062 -51.296875 70.652344 -51.433594 70.652344 -51.570312 C 70.652344 -51.847656 70.789062 -51.988281 71.066406 -51.988281 Z M 71.757812 -51.15625 C 75.769531 -53.371094 81.160156 -56.824219 82.128906 -57.65625 C 82.820312 -58.207031 83.648438 -58.625 83.925781 -58.625 C 84.203125 -58.625 84.476562 -58.761719 84.476562 -59.039062 C 84.476562 -59.589844 87.105469 -60.835938 87.660156 -60.558594 C 88.210938 -60.28125 90.007812 -61.25 89.730469 -61.664062 C 89.457031 -62.21875 111.855469 -72.035156 112.269531 -71.480469 C 112.40625 -71.480469 111.023438 -70.789062 109.226562 -70.097656 C 107.566406 -69.40625 106.046875 -68.578125 106.046875 -68.300781 C 105.910156 -68.023438 105.632812 -67.75 105.355469 -67.609375 C 104.941406 -67.472656 104.804688 -67.195312 104.941406 -66.917969 C 105.078125 -66.640625 104.941406 -66.640625 104.527344 -66.78125 C 104.25 -66.917969 103.144531 -66.640625 101.761719 -65.953125 C 100.515625 -65.398438 99.6875 -65.121094 99.550781 -65.398438 C 99.550781 -65.675781 99.273438 -65.8125 99.132812 -65.8125 C 98.859375 -65.953125 98.71875 -65.675781 98.859375 -65.535156 C 98.996094 -65.261719 98.582031 -64.84375 98.027344 -64.429688 C 97.335938 -64.152344 96.785156 -63.738281 96.644531 -63.601562 C 96.507812 -63.460938 95.675781 -63.046875 94.847656 -62.769531 C 94.019531 -62.496094 93.328125 -62.078125 93.328125 -61.804688 C 93.328125 -61.386719 93.050781 -61.113281 92.914062 -61.113281 C 92.636719 -61.113281 92.636719 -61.386719 92.773438 -61.527344 C 93.328125 -62.21875 92.359375 -61.941406 91.390625 -61.113281 C 90.839844 -60.558594 89.730469 -60.007812 88.902344 -59.867188 C 87.519531 -59.589844 86.414062 -58.898438 83.234375 -56.550781 C 81.4375 -55.167969 78.394531 -53.507812 78.808594 -54.199219 C 78.949219 -54.476562 78.949219 -54.613281 78.808594 -54.613281 C 78.671875 -54.613281 78.257812 -54.335938 78.117188 -53.921875 C 77.839844 -53.371094 76.734375 -52.679688 75.628906 -52.125 C 74.523438 -51.710938 73.554688 -51.15625 73.417969 -51.019531 C 73.277344 -50.878906 73.003906 -50.742188 72.726562 -50.742188 C 72.449219 -50.742188 72.035156 -50.464844 71.621094 -50.050781 C 71.34375 -49.636719 70.515625 -49.222656 69.824219 -49.222656 L 68.714844 -48.945312 L 69.683594 -49.773438 C 70.238281 -50.1875 71.207031 -50.742188 71.757812 -51.15625 Z M 68.164062 -50.328125 C 68.578125 -50.464844 68.992188 -50.605469 68.992188 -50.464844 C 68.992188 -50.328125 68.578125 -50.050781 68.164062 -49.914062 C 67.75 -49.636719 67.332031 -49.636719 67.332031 -49.636719 C 67.332031 -49.773438 67.75 -50.050781 68.164062 -50.328125 Z M 66.640625 -47.839844 C 68.300781 -48.945312 68.855469 -48.945312 67.609375 -47.699219 C 67.058594 -47.285156 66.367188 -46.871094 65.953125 -46.871094 C 65.535156 -46.871094 65.8125 -47.285156 66.640625 -47.839844 Z M 55.027344 -39.820312 C 58.484375 -42.445312 62.078125 -44.796875 62.355469 -44.519531 C 62.496094 -44.382812 62.632812 -44.519531 62.632812 -44.796875 C 62.632812 -44.933594 62.910156 -45.074219 63.046875 -44.933594 C 63.601562 -44.519531 60.835938 -42.445312 59.730469 -42.445312 C 58.625 -42.308594 57.65625 -41.617188 57.933594 -41.0625 C 58.070312 -40.925781 57.792969 -40.648438 57.378906 -40.371094 C 56.824219 -39.957031 56.824219 -39.957031 56.964844 -40.234375 C 57.515625 -41.0625 56.6875 -40.925781 55.859375 -40.097656 C 55.441406 -39.679688 55.167969 -39.40625 55.441406 -39.265625 C 55.582031 -39.265625 55.441406 -39.128906 55.167969 -38.714844 C 54.890625 -38.4375 54.335938 -38.296875 53.921875 -38.296875 C 53.230469 -38.296875 53.507812 -38.574219 55.027344 -39.820312 Z M 44.660156 -33.042969 C 45.902344 -33.734375 45.902344 -33.734375 44.382812 -32.351562 C 43.414062 -31.523438 42.585938 -30.832031 42.585938 -30.832031 C 42.03125 -30.832031 43.550781 -32.351562 44.660156 -33.042969 Z M 52.679688 -37.605469 C 52.816406 -37.054688 47.699219 -32.492188 46.871094 -32.351562 C 46.59375 -32.351562 44.660156 -30.832031 42.722656 -29.035156 C 40.648438 -27.238281 38.988281 -25.992188 38.988281 -26.132812 C 38.988281 -26.824219 52.539062 -38.160156 52.679688 -37.605469 Z M 37.746094 -25.027344 C 38.023438 -25.300781 38.296875 -25.578125 38.4375 -25.578125 C 38.574219 -25.578125 38.4375 -25.300781 38.160156 -25.027344 C 37.746094 -24.75 37.46875 -24.472656 37.332031 -24.472656 C 37.332031 -24.472656 37.46875 -24.75 37.746094 -25.027344 Z M 35.808594 -22.953125 C 36.226562 -23.367188 36.640625 -23.78125 36.777344 -23.78125 C 36.917969 -23.78125 36.640625 -23.367188 36.226562 -22.953125 C 35.808594 -22.535156 35.394531 -22.261719 35.257812 -22.261719 C 35.117188 -22.261719 35.394531 -22.535156 35.808594 -22.953125 Z M 33.875 -20.878906 C 34.152344 -21.292969 34.566406 -21.570312 34.566406 -21.570312 C 34.703125 -21.570312 34.566406 -21.292969 34.289062 -20.878906 C 34.011719 -20.601562 33.734375 -20.324219 33.597656 -20.324219 C 33.460938 -20.324219 33.597656 -20.601562 33.875 -20.878906 Z M 27.097656 29.589844 C 26.960938 29.3125 27.097656 29.171875 27.515625 29.449219 C 27.789062 29.589844 28.066406 29.726562 28.066406 29.863281 C 28.066406 30.140625 27.238281 29.863281 27.097656 29.589844 Z M 34.289062 32.628906 C 32.628906 32.492188 31.386719 32.214844 31.386719 31.800781 C 31.523438 31.664062 32.078125 31.664062 32.769531 31.800781 C 33.460938 32.078125 34.289062 32.351562 34.703125 32.492188 C 35.257812 32.628906 35.117188 32.769531 34.289062 32.628906 Z M 37.605469 33.734375 C 36.5 33.734375 36.085938 33.460938 36.085938 32.769531 C 36.085938 32.351562 37.054688 32.492188 37.882812 33.183594 C 38.574219 33.875 38.574219 33.875 37.605469 33.734375 Z M 48.667969 33.875 C 48.117188 34.011719 46.457031 34.011719 45.074219 34.011719 C 43.691406 34.011719 43 34.011719 43.550781 34.011719 C 44.105469 33.875 44.796875 33.734375 45.074219 33.597656 C 45.488281 33.460938 45.902344 33.320312 46.042969 33.320312 C 46.316406 33.320312 46.734375 33.320312 47.148438 33.183594 C 48.53125 32.769531 49.496094 32.769531 49.636719 33.183594 C 49.636719 33.597656 49.359375 33.875 48.667969 33.875 Z M 55.304688 32.628906 C 53.09375 33.183594 49.496094 33.734375 50.605469 33.183594 C 50.878906 33.183594 51.570312 32.769531 51.847656 32.492188 C 52.261719 32.078125 52.539062 32.078125 52.539062 32.351562 C 52.679688 32.769531 52.816406 32.769531 53.230469 32.628906 C 53.371094 32.351562 54.476562 32.214844 55.582031 32.214844 L 57.65625 32.078125 Z M 60.144531 31.523438 C 58.761719 31.800781 58.070312 31.664062 58.484375 31.386719 C 58.625 30.832031 60.972656 30.695312 60.972656 31.109375 C 60.972656 31.246094 60.558594 31.386719 60.144531 31.523438 Z M 69.824219 28.480469 C 69.40625 28.757812 68.992188 28.757812 69.132812 28.621094 C 69.132812 28.621094 68.300781 28.757812 67.472656 29.171875 C 65.121094 30.140625 63.460938 30.417969 63.460938 29.863281 C 63.460938 29.449219 65.953125 28.621094 67.195312 28.621094 C 67.332031 28.480469 67.609375 28.480469 67.75 28.207031 C 67.886719 28.066406 68.441406 28.066406 68.855469 28.066406 C 69.269531 28.066406 69.960938 27.929688 70.238281 27.652344 C 70.652344 27.375 70.652344 27.375 70.652344 27.652344 C 70.652344 27.929688 70.238281 28.34375 69.824219 28.480469 Z M 77.425781 24.886719 C 77.011719 24.472656 75.492188 25.027344 75.769531 25.578125 C 75.769531 25.855469 75.351562 26.269531 74.800781 26.40625 C 73.695312 26.960938 73.695312 26.960938 73.417969 26.546875 C 73.140625 26.132812 74.386719 25.441406 77.289062 24.058594 C 79.914062 22.675781 79.914062 22.675781 79.914062 23.503906 C 79.777344 24.195312 77.839844 25.300781 77.425781 24.886719 Z M 81.023438 23.503906 C 80.605469 24.058594 80.054688 23.78125 80.191406 23.089844 C 80.332031 22.675781 80.46875 22.261719 80.46875 22.121094 C 80.46875 22.121094 80.746094 22.261719 80.882812 22.535156 C 81.023438 22.953125 81.023438 23.226562 81.023438 23.503906 Z M 95.816406 14.65625 C 94.15625 16.175781 93.464844 16.589844 92.636719 16.453125 C 92.496094 16.316406 92.222656 16.589844 92.082031 17.007812 C 91.667969 17.972656 83.097656 22.398438 82.820312 21.84375 C 82.542969 21.292969 82.542969 21.429688 82.265625 22.261719 C 82.265625 22.398438 82.128906 22.8125 81.988281 22.8125 C 81.574219 23.226562 81.851562 22.121094 82.265625 21.570312 C 82.40625 21.292969 82.820312 21.152344 83.097656 21.152344 C 84.0625 21.429688 84.476562 21.292969 84.617188 20.738281 C 84.617188 19.910156 86.96875 18.664062 87.519531 19.082031 C 87.796875 19.082031 87.796875 19.082031 87.660156 18.804688 C 87.519531 18.527344 88.210938 17.835938 89.179688 17.28125 C 90.148438 16.730469 91.113281 16.039062 91.390625 15.898438 C 93.605469 14.515625 94.847656 13.6875 95.125 13.6875 C 95.261719 13.6875 95.816406 13.410156 96.507812 12.996094 C 98.304688 11.890625 97.890625 12.71875 95.816406 14.65625 Z M 100.242188 11.753906 C 99.824219 12.167969 99.6875 12.027344 99.964844 11.613281 C 100.242188 11.0625 100.929688 10.644531 100.929688 11.199219 C 100.929688 11.199219 100.65625 11.476562 100.242188 11.753906 Z M 108.121094 5.53125 C 107.984375 5.667969 107.292969 6.222656 106.738281 6.914062 C 106.1875 7.464844 104.941406 8.574219 103.972656 9.402344 C 101.898438 10.785156 100.101562 11.199219 101.070312 9.953125 C 101.347656 9.539062 102.3125 8.710938 103.144531 8.15625 C 104.113281 7.605469 105.496094 6.636719 106.460938 5.945312 C 107.292969 5.253906 108.257812 4.839844 108.257812 4.976562 C 108.398438 5.117188 108.398438 5.390625 108.121094 5.53125 Z M 126.925781 -10.230469 C 124.574219 -7.742188 124.574219 -7.742188 116.277344 -0.828125 C 112.820312 2.074219 109.640625 4.5625 109.367188 4.425781 C 108.949219 4.425781 109.503906 3.734375 111.164062 2.488281 C 113.238281 0.828125 117.800781 -3.179688 126.371094 -10.785156 C 127.617188 -11.890625 128.722656 -12.71875 128.722656 -12.582031 C 128.859375 -12.445312 128.03125 -11.335938 126.925781 -10.230469 Z M 133.421875 -16.867188 C 130.519531 -13.964844 129.414062 -12.859375 129.414062 -13.136719 C 129.414062 -13.550781 132.871094 -17.558594 133.976562 -18.390625 C 135.359375 -19.496094 134.945312 -18.664062 133.421875 -16.867188 Z M 138.675781 -22.953125 C 138.125 -22.398438 137.433594 -21.707031 137.15625 -21.292969 C 136.878906 -20.878906 136.601562 -20.738281 136.601562 -21.015625 C 136.601562 -21.429688 138.125 -23.367188 138.953125 -23.78125 C 139.785156 -24.335938 139.507812 -23.78125 138.675781 -22.953125 Z M 141.582031 -26.683594 C 141.027344 -25.855469 140.335938 -25.027344 140.058594 -24.75 C 139.785156 -24.472656 140.058594 -25.164062 140.890625 -26.269531 C 142.546875 -28.621094 143.101562 -28.898438 141.582031 -26.683594 Z M 141.582031 -26.683594 "/></g></g></g><g fill="#000000" fill-opacity="1"><g transform="translate(146.90538, 348.144527)"><g><path d="M 138.984375 -74.679688 C 138.570312 -75.644531 123.632812 -74.402344 122.25 -73.296875 C 121.699219 -72.742188 122.527344 -72.878906 128.472656 -73.433594 C 133.730469 -73.988281 137.046875 -74.261719 138.429688 -74.261719 C 138.84375 -74.261719 139.121094 -74.402344 138.984375 -74.679688 Z M 0.96875 -90.996094 C 1.9375 -83.804688 7.746094 -73.296875 12.585938 -69.835938 C 18.808594 -65.414062 19.914062 -64.859375 27.105469 -62.921875 C 28.210938 -62.648438 29.59375 -61.953125 30.148438 -61.539062 C 31.117188 -60.847656 32.914062 -60.570312 42.871094 -59.878906 C 57.804688 -58.636719 73.710938 -56.976562 74.539062 -56.5625 C 74.953125 -56.148438 74.402344 -55.59375 72.328125 -54.347656 C 70.667969 -53.382812 68.730469 -51.859375 67.761719 -51.03125 C 65.550781 -49.230469 62.785156 -47.574219 61.953125 -47.847656 C 61.539062 -47.847656 59.742188 -46.742188 57.945312 -45.222656 C 54.488281 -42.316406 52.136719 -40.519531 51.445312 -40.65625 C 51.167969 -40.65625 50.890625 -40.382812 50.613281 -40.105469 C 50.0625 -39.136719 43.839844 -34.574219 43.148438 -34.710938 C 42.871094 -34.710938 40.796875 -33.191406 38.859375 -31.390625 C 35.402344 -28.488281 33.605469 -27.242188 34.988281 -28.902344 C 35.402344 -29.316406 35.402344 -29.734375 35.265625 -30.007812 C 34.851562 -30.425781 27.660156 -23.234375 27.660156 -22.265625 C 27.519531 -21.710938 28.074219 -21.988281 29.179688 -23.234375 L 30.839844 -25.03125 L 29.59375 -23.234375 C 28.902344 -22.265625 28.210938 -21.019531 28.074219 -20.46875 C 27.933594 -19.777344 27.382812 -19.5 26.691406 -19.359375 C 25.722656 -19.359375 25.445312 -18.945312 24.753906 -17.011719 C 24.339844 -15.765625 23.925781 -13.136719 23.648438 -11.339844 C 23.234375 -8.160156 23.234375 -7.605469 24.339844 -4.703125 C 25.722656 -0.691406 26.96875 0.828125 29.042969 1.796875 C 31.390625 2.765625 34.160156 2.902344 39 2.074219 C 43.839844 1.246094 55.179688 -1.9375 58.636719 -3.457031 C 59.742188 -4.011719 62.09375 -4.980469 63.476562 -5.394531 C 66.378906 -6.5 77.996094 -12.445312 78.410156 -13.136719 C 78.550781 -13.414062 78.550781 -13.550781 78.136719 -13.550781 C 77.582031 -13.550781 86.847656 -19.636719 88.921875 -20.605469 C 91.6875 -21.710938 98.601562 -28.902344 100.675781 -32.773438 C 102.335938 -35.957031 102.476562 -36.507812 102.75 -39.964844 C 102.890625 -42.039062 102.75 -44.253906 102.476562 -44.945312 C 101.09375 -48.816406 99.292969 -51.996094 97.359375 -54.347656 C 95.976562 -56.007812 95.285156 -57.113281 95.558594 -57.390625 C 96.25 -58.082031 108.144531 -62.785156 115.75 -65.414062 C 119.621094 -66.796875 123.632812 -68.179688 124.601562 -68.59375 C 125.570312 -69.007812 127.367188 -69.699219 128.472656 -69.976562 C 129.578125 -70.390625 130.6875 -70.804688 130.964844 -70.945312 C 131.101562 -71.21875 132.484375 -71.496094 133.867188 -71.773438 C 137.460938 -72.464844 137.460938 -72.464844 137.046875 -72.878906 C 136.21875 -73.988281 116.027344 -71.082031 109.25 -68.871094 C 108.144531 -68.59375 107.175781 -68.316406 107.039062 -68.453125 C 106.761719 -68.871094 109.804688 -69.976562 112.847656 -70.527344 C 115.335938 -71.21875 116.304688 -71.910156 114.507812 -72.050781 C 113.398438 -72.050781 101.644531 -68.730469 100.953125 -68.179688 C 100.816406 -67.902344 100.261719 -67.761719 99.847656 -67.761719 C 99.433594 -67.902344 99.015625 -67.488281 98.878906 -66.933594 C 98.601562 -66.378906 98.324219 -66.105469 98.050781 -66.105469 C 97.632812 -66.105469 97.632812 -66.378906 98.1875 -66.796875 C 98.742188 -67.488281 98.742188 -67.488281 97.910156 -67.210938 C 97.359375 -67.070312 96.25 -66.65625 95.421875 -66.378906 C 94.59375 -66.242188 91.828125 -65.136719 89.476562 -64.167969 C 86.15625 -62.648438 84.910156 -62.371094 84.082031 -62.648438 C 82.421875 -63.476562 73.019531 -65.6875 67.625 -66.519531 C 64.722656 -66.933594 58.636719 -67.625 53.933594 -68.039062 C 38.722656 -69.421875 35.265625 -69.835938 30.148438 -71.082031 C 24.753906 -72.464844 24.0625 -72.742188 19.636719 -74.679688 C 15.488281 -76.613281 12.445312 -78.964844 9.679688 -82.5625 C 7.746094 -85.050781 7.054688 -86.433594 6.777344 -87.953125 C 6.222656 -90.859375 6.5 -94.453125 7.46875 -97.496094 C 8.574219 -101.09375 11.753906 -107.175781 14.105469 -110.082031 C 19.222656 -116.582031 29.871094 -126.121094 39.828125 -133.3125 C 45.914062 -137.601562 45.773438 -137.601562 53.105469 -142.164062 C 56.5625 -144.101562 60.019531 -146.453125 60.847656 -147.28125 C 64.03125 -150.324219 86.984375 -161.386719 95.699219 -163.875 C 98.050781 -164.566406 100.125 -165.257812 100.398438 -165.535156 C 100.953125 -165.949219 104.964844 -166.917969 107.039062 -167.195312 C 108.007812 -167.332031 110.21875 -167.609375 111.878906 -168.023438 C 117.824219 -169.410156 135.386719 -170.515625 137.046875 -169.683594 C 137.738281 -169.410156 138.292969 -169.410156 138.429688 -169.683594 C 138.984375 -170.375 140.921875 -168.023438 140.921875 -166.917969 C 140.503906 -163.046875 133.175781 -152.121094 124.601562 -142.71875 C 120.589844 -138.429688 118.792969 -136.078125 119.070312 -135.804688 C 119.207031 -135.664062 119.621094 -135.804688 119.898438 -136.21875 C 122.390625 -139.121094 125.429688 -142.578125 126.539062 -143.6875 C 127.230469 -144.515625 129.027344 -146.453125 130.410156 -148.25 C 131.792969 -150.046875 133.039062 -151.570312 133.175781 -151.429688 C 134.003906 -151.429688 121.972656 -137.738281 117.964844 -133.867188 C 116.71875 -132.761719 116.441406 -132.484375 117.132812 -133.3125 C 117.964844 -134.144531 118.378906 -134.835938 118.238281 -135.113281 C 118.101562 -135.25 117.6875 -135.113281 117.410156 -134.835938 C 108.972656 -126.121094 107.730469 -124.738281 108.007812 -124.046875 C 108.144531 -123.496094 108.007812 -123.355469 107.730469 -123.496094 C 107.589844 -123.632812 104.132812 -120.867188 100.261719 -117.273438 C 88.09375 -106.070312 81.316406 -100.816406 80.210938 -101.921875 C 79.792969 -102.335938 79.65625 -102.335938 79.65625 -101.921875 C 79.65625 -101.644531 79.519531 -101.507812 79.242188 -101.507812 C 78.964844 -101.507812 78.964844 -101.785156 79.101562 -102.199219 C 79.65625 -103.582031 77.996094 -103.027344 77.027344 -101.507812 C 75.507812 -99.292969 76.476562 -95.285156 79.378906 -91.964844 C 80.484375 -90.582031 81.175781 -90.304688 82.5625 -90.167969 C 84.21875 -90.027344 84.910156 -90.441406 88.230469 -93.070312 C 95.144531 -98.464844 106.484375 -109.113281 115.199219 -118.515625 C 117.6875 -121.144531 122.25 -125.984375 125.429688 -129.304688 C 146.175781 -150.878906 150.1875 -157.652344 147.144531 -165.535156 C 145.761719 -169.410156 141.886719 -173.558594 138.292969 -175.078125 C 133.589844 -177.152344 130.964844 -177.566406 119.898438 -177.707031 C 111.1875 -177.84375 103.441406 -176.597656 96.941406 -174.109375 C 95.976562 -173.695312 93.761719 -172.867188 91.964844 -172.3125 C 90.304688 -171.757812 88.230469 -170.929688 87.261719 -170.515625 C 86.433594 -170.238281 84.496094 -169.960938 82.976562 -170.101562 C 79.933594 -170.101562 79.933594 -170.101562 72.1875 -166.367188 C 67.761719 -164.292969 67.210938 -163.875 67.488281 -163.324219 C 67.625 -163.046875 68.453125 -163.183594 69.421875 -163.738281 C 70.390625 -164.152344 71.21875 -164.292969 71.21875 -164.152344 C 71.21875 -163.875 70.390625 -163.324219 69.421875 -162.910156 C 64.03125 -160.417969 46.464844 -150.1875 42.730469 -147.28125 C 40.105469 -145.484375 34.296875 -141.472656 31.945312 -140.089844 C 30.839844 -139.539062 30.007812 -138.984375 29.871094 -138.84375 C 29.734375 -138.707031 28.902344 -138.015625 28.074219 -137.1875 L 26.414062 -135.941406 L 27.796875 -137.460938 C 28.488281 -138.152344 29.042969 -138.84375 28.902344 -139.121094 C 28.488281 -139.539062 24.339844 -136.21875 17.5625 -129.855469 C 7.746094 -120.730469 3.179688 -114.367188 1.105469 -107.867188 C 0.136719 -104.824219 -0.554688 -96.667969 0.136719 -95.285156 C 0.277344 -94.867188 0.691406 -92.933594 0.96875 -90.996094 Z M 109.804688 -66.65625 C 110.21875 -66.933594 111.050781 -67.070312 111.601562 -67.347656 L 112.707031 -67.488281 L 111.601562 -66.933594 C 111.050781 -66.519531 110.21875 -66.242188 109.804688 -66.242188 C 109.25 -66.378906 109.25 -66.378906 109.804688 -66.65625 Z M 48.402344 -4.703125 C 47.710938 -4.5625 47.019531 -4.425781 47.019531 -4.5625 C 47.019531 -4.839844 49.371094 -5.671875 49.648438 -5.394531 C 49.648438 -5.253906 49.09375 -4.980469 48.402344 -4.703125 Z M 53.519531 -6.363281 C 51.445312 -5.808594 50.890625 -5.808594 52.273438 -6.5 C 52.964844 -6.777344 53.242188 -7.191406 52.964844 -7.328125 C 52.828125 -7.605469 52.964844 -7.746094 53.382812 -7.605469 C 54.625 -7.328125 55.59375 -7.46875 55.316406 -8.019531 C 55.179688 -8.4375 55.730469 -8.574219 56.5625 -8.4375 C 56.699219 -8.4375 58.773438 -9.265625 61.125 -10.371094 C 63.613281 -11.476562 65.550781 -12.167969 65.6875 -12.03125 C 65.828125 -11.617188 56.5625 -7.328125 53.519531 -6.363281 Z M 67.347656 -13.136719 C 67.070312 -12.308594 66.796875 -12.167969 66.796875 -12.859375 C 66.796875 -13.136719 67.070312 -13.414062 67.210938 -13.550781 C 67.488281 -13.691406 67.625 -13.414062 67.347656 -13.136719 Z M 77.027344 -18.945312 C 73.847656 -16.871094 70.390625 -15.074219 71.082031 -15.628906 C 71.636719 -16.179688 78.273438 -20.882812 79.792969 -21.710938 C 80.210938 -22.125 81.59375 -22.957031 82.699219 -23.785156 C 83.804688 -24.617188 84.773438 -25.167969 84.910156 -25.03125 C 85.050781 -24.753906 80.347656 -21.019531 77.027344 -18.945312 Z M 88.507812 -27.796875 C 87.261719 -26.550781 85.464844 -25.308594 85.464844 -25.722656 C 85.464844 -25.859375 86.570312 -26.550781 87.675781 -27.519531 C 89.75 -29.042969 89.75 -29.042969 88.507812 -27.796875 Z M 92.101562 -51.859375 C 96.390625 -49.230469 96.941406 -47.574219 94.867188 -43.285156 C 92.792969 -39.136719 87.816406 -33.328125 84.359375 -31.117188 C 81.453125 -29.316406 78.964844 -27.242188 77.027344 -25.308594 C 75.921875 -24.203125 74.261719 -22.957031 73.15625 -22.265625 C 71.910156 -21.710938 70.390625 -20.742188 69.699219 -20.191406 C 69.007812 -19.636719 66.796875 -18.394531 64.996094 -17.5625 C 61.816406 -16.179688 59.605469 -14.660156 60.570312 -14.660156 C 61.125 -14.519531 67.902344 -17.425781 70.667969 -18.945312 C 72.1875 -19.636719 73.570312 -20.328125 73.710938 -20.191406 C 73.847656 -20.050781 65.273438 -15.488281 64.03125 -15.210938 C 63.890625 -15.074219 63.753906 -14.796875 63.890625 -14.660156 C 64.03125 -14.382812 64.996094 -14.519531 66.105469 -14.9375 C 69.285156 -16.042969 67.902344 -15.210938 63.199219 -13.136719 C 55.59375 -9.820312 47.019531 -6.914062 40.382812 -5.53125 C 37.890625 -4.980469 34.988281 -4.703125 33.050781 -4.839844 L 29.871094 -4.980469 L 32.636719 -5.394531 C 36.507812 -6.085938 40.242188 -7.054688 40.242188 -7.605469 C 40.242188 -8.019531 39.550781 -8.019531 35.402344 -7.328125 C 34.296875 -7.191406 32.636719 -7.054688 31.53125 -7.191406 C 29.734375 -7.328125 29.59375 -7.328125 30.699219 -7.746094 C 31.53125 -8.160156 31.667969 -8.160156 30.976562 -8.4375 C 29.871094 -8.851562 30.148438 -9.542969 32.773438 -13.136719 C 36.371094 -17.976562 46.050781 -27.105469 51.996094 -31.390625 C 53.519531 -32.5 56.839844 -34.851562 59.605469 -36.785156 C 62.230469 -38.722656 64.582031 -40.242188 64.722656 -40.242188 C 64.859375 -40.242188 68.039062 -42.316406 71.910156 -44.667969 C 75.644531 -47.019531 80.761719 -50.0625 83.113281 -51.445312 C 87.816406 -54.210938 88.230469 -54.074219 92.101562 -51.859375 Z M 82.421875 -55.730469 C 82.976562 -55.179688 82.007812 -54.210938 79.65625 -53.242188 C 78.273438 -52.550781 76.890625 -51.722656 76.613281 -51.304688 C 76.199219 -51.03125 75.644531 -50.753906 75.230469 -50.753906 C 74.816406 -50.753906 74.261719 -50.476562 73.847656 -50.199219 C 73.570312 -49.785156 73.019531 -49.507812 72.742188 -49.507812 C 72.328125 -49.507812 72.050781 -49.371094 72.050781 -49.09375 C 72.050781 -48.816406 71.773438 -48.679688 71.359375 -48.679688 C 71.082031 -48.679688 69.976562 -47.988281 69.007812 -47.019531 C 67.902344 -46.050781 66.796875 -45.222656 66.519531 -45.222656 C 65.828125 -45.359375 63.890625 -43.976562 63.890625 -43.285156 C 63.890625 -43.007812 63.613281 -42.59375 63.339844 -42.457031 C 62.921875 -42.179688 62.921875 -42.316406 63.199219 -42.730469 C 63.476562 -43.148438 63.339844 -43.148438 62.921875 -43.148438 C 62.507812 -43.007812 62.371094 -42.59375 62.371094 -42.179688 C 62.371094 -41.625 62.09375 -41.488281 61.125 -41.488281 C 59.742188 -41.625 58.773438 -41.210938 59.050781 -40.65625 C 59.1875 -40.382812 58.082031 -39.691406 56.699219 -39.136719 C 54.347656 -38.03125 52.136719 -36.648438 45.914062 -32.082031 C 43.839844 -30.5625 42.039062 -29.871094 43.425781 -31.117188 C 46.191406 -33.605469 53.796875 -39.136719 58.914062 -42.316406 C 62.230469 -44.390625 66.933594 -47.296875 69.144531 -48.957031 C 73.296875 -51.722656 82.007812 -56.285156 82.421875 -55.730469 Z M 138.152344 -158.621094 C 138.429688 -159.035156 138.84375 -159.453125 138.84375 -159.453125 C 138.984375 -159.453125 138.984375 -159.035156 138.707031 -158.621094 C 138.292969 -158.066406 138.015625 -157.652344 137.878906 -157.652344 C 137.738281 -157.652344 137.878906 -158.066406 138.152344 -158.621094 Z M 137.460938 -157.238281 C 137.601562 -157.238281 136.769531 -155.992188 135.804688 -154.609375 C 133.867188 -152.121094 133.453125 -151.570312 133.453125 -152.121094 C 133.453125 -152.535156 137.324219 -157.238281 137.460938 -157.238281 Z M 138.292969 -151.152344 C 136.496094 -148.386719 127.230469 -137.1875 125.707031 -135.804688 C 124.878906 -135.25 122.664062 -132.898438 120.589844 -130.6875 C 118.515625 -128.613281 115.890625 -125.847656 114.78125 -124.601562 C 113.539062 -123.355469 112.292969 -122.113281 111.878906 -121.972656 C 111.324219 -121.558594 115.472656 -126.121094 123.773438 -134.695312 C 128.195312 -139.261719 131.238281 -142.71875 134.558594 -147.003906 C 136.078125 -148.941406 137.738281 -151.015625 138.292969 -151.707031 L 139.261719 -152.675781 Z M 18.117188 -118.378906 C 15.765625 -115.890625 15.765625 -115.890625 15.074219 -116.441406 C 14.660156 -116.71875 14.796875 -116.996094 15.488281 -117.6875 C 16.179688 -118.101562 16.320312 -118.238281 16.042969 -117.824219 C 15.765625 -117.546875 15.488281 -116.996094 15.351562 -116.71875 C 15.351562 -116.441406 16.457031 -117.273438 17.839844 -118.378906 L 20.191406 -120.589844 Z M 24.476562 -125.707031 C 23.925781 -125.15625 23.785156 -125.292969 24.0625 -125.847656 C 24.339844 -126.539062 25.167969 -126.8125 25.167969 -126.398438 C 25.167969 -126.261719 24.894531 -125.984375 24.476562 -125.707031 Z M 32.5 -132.621094 C 31.808594 -132.070312 31.253906 -131.792969 31.253906 -131.929688 C 31.253906 -132.070312 31.808594 -132.484375 32.636719 -133.039062 C 33.328125 -133.589844 34.019531 -133.867188 33.882812 -133.730469 C 33.882812 -133.589844 33.328125 -133.039062 32.5 -132.621094 Z M 38.03125 -136.632812 C 37.753906 -136.355469 37.339844 -135.941406 37.199219 -135.941406 C 37.0625 -135.941406 37.339844 -136.355469 37.617188 -136.632812 C 37.890625 -137.046875 38.308594 -137.324219 38.445312 -137.324219 C 38.582031 -137.324219 38.308594 -137.046875 38.03125 -136.632812 Z M 57.667969 -149.496094 C 57.390625 -149.078125 56.839844 -148.664062 56.5625 -148.664062 C 56.285156 -148.800781 56.148438 -148.800781 56.285156 -148.941406 C 56.421875 -148.941406 56.976562 -149.21875 57.390625 -149.632812 C 58.222656 -150.1875 58.222656 -150.1875 57.667969 -149.496094 Z M 66.519531 -154.609375 C 65.964844 -154.058594 65.414062 -153.78125 65.136719 -153.78125 C 64.722656 -153.78125 64.445312 -153.503906 64.304688 -153.226562 C 64.167969 -152.953125 64.03125 -152.953125 63.890625 -153.503906 C 63.613281 -154.472656 65.136719 -155.578125 66.519531 -155.578125 C 67.347656 -155.441406 67.347656 -155.441406 66.519531 -154.609375 Z M 89.199219 -165.257812 C 88.785156 -164.984375 88.230469 -164.84375 88.09375 -164.84375 C 87.816406 -164.984375 87.953125 -165.121094 88.367188 -165.257812 C 88.644531 -165.535156 89.199219 -165.675781 89.476562 -165.675781 C 89.613281 -165.675781 89.613281 -165.535156 89.199219 -165.257812 Z M 88.230469 -167.332031 C 88.644531 -167.472656 88.785156 -167.472656 88.644531 -167.195312 C 88.507812 -166.917969 88.09375 -166.78125 87.953125 -166.78125 C 87.261719 -166.78125 87.539062 -167.058594 88.230469 -167.332031 Z M 86.984375 -164.84375 C 87.261719 -164.707031 86.019531 -164.015625 84.21875 -163.324219 C 82.421875 -162.492188 80.210938 -161.664062 79.519531 -161.386719 C 78.828125 -160.972656 78.410156 -160.972656 78.6875 -161.25 C 79.378906 -161.941406 86.570312 -164.984375 86.984375 -164.84375 Z M 86.15625 -166.640625 C 86.433594 -166.78125 86.570312 -166.640625 86.570312 -166.367188 C 86.570312 -166.089844 86.433594 -165.949219 86.15625 -165.949219 C 85.601562 -165.949219 85.601562 -166.226562 86.15625 -166.640625 Z M 71.910156 -160.972656 C 73.296875 -162.21875 84.359375 -166.226562 83.667969 -165.121094 C 83.527344 -164.84375 82.835938 -164.707031 82.007812 -164.566406 C 81.316406 -164.429688 78.6875 -163.460938 76.476562 -162.492188 C 72.742188 -160.972656 71.359375 -160.417969 71.910156 -160.972656 Z M 9.957031 -118.238281 C 14.9375 -124.464844 27.242188 -135.386719 36.09375 -141.472656 C 44.667969 -147.417969 44.53125 -147.28125 58.359375 -155.578125 C 59.050781 -156.132812 60.710938 -156.683594 61.816406 -156.960938 C 63.0625 -157.375 65.550781 -158.34375 67.488281 -159.175781 C 69.421875 -160.003906 71.082031 -160.835938 71.21875 -160.835938 C 72.050781 -160.695312 70.390625 -159.726562 67.070312 -158.066406 C 64.859375 -156.960938 62.371094 -155.71875 61.539062 -155.027344 C 60.847656 -154.472656 60.019531 -154.058594 59.878906 -154.058594 C 59.605469 -154.058594 57.945312 -153.089844 55.871094 -151.84375 C 53.796875 -150.601562 51.03125 -148.941406 49.507812 -147.972656 C 47.988281 -147.144531 44.808594 -145.070312 42.457031 -143.410156 C 40.105469 -141.886719 37.890625 -140.367188 37.476562 -140.230469 C 36.09375 -139.8125 29.316406 -134.28125 23.785156 -129.164062 C 17.285156 -123.082031 12.167969 -117.6875 8.988281 -112.984375 C 7.46875 -111.050781 5.945312 -108.699219 5.253906 -107.867188 C 3.734375 -105.515625 4.148438 -106.625 5.808594 -109.804688 C 7.605469 -112.847656 9.402344 -115.335938 15.210938 -122.113281 L 19.222656 -126.675781 L 15.902344 -123.632812 C 12.03125 -120.175781 8.019531 -115.335938 5.945312 -111.878906 C 5.117188 -110.632812 4.5625 -109.664062 4.5625 -109.941406 C 4.5625 -110.773438 7.328125 -114.921875 9.957031 -118.238281 Z M 71.773438 -54.625 C 71.910156 -54.902344 71.910156 -55.179688 71.773438 -55.179688 C 71.359375 -55.179688 67.902344 -52.964844 67.902344 -52.6875 C 67.902344 -52.414062 71.496094 -54.210938 71.773438 -54.625 Z M 37.753906 -31.390625 C 38.722656 -32.082031 41.210938 -34.160156 43.425781 -35.957031 C 47.574219 -39.273438 48.679688 -40.382812 47.019531 -39.550781 C 46.191406 -39.136719 38.03125 -32.914062 36.507812 -31.53125 C 36.234375 -31.253906 35.957031 -30.699219 35.957031 -30.425781 C 35.957031 -30.148438 36.785156 -30.5625 37.753906 -31.390625 Z M 63.199219 -18.117188 C 62.785156 -18.253906 61.953125 -17.839844 61.402344 -17.425781 C 59.878906 -16.179688 61.125 -16.042969 62.648438 -17.285156 C 63.613281 -17.839844 63.613281 -18.117188 63.199219 -18.117188 Z M 63.199219 -18.117188 "/></g></g></g></svg>